# xmcd CD database file
#
# Track frame offsets:
#	150
#	36972
#	88636
#	104649
#	136965
#	172884
#	193290
#	228158
#	259865
#
# Disc length: 3827 seconds
#
# Revision: 1
# Processed by: cddbd v1.5.2PL0 Copyright (c) Steve Scherf et al.
# Submitted via: CDex 1.70beta2
#
DISCID=780ef109
DTITLE=Larry Schneider - It Might As Well Be Spring
DYEAR=2003
DGENRE=Jazz
TTITLE0=It Might As Well Be Spring
TTITLE1=Draul
TTITLE2=Stompin' At The Savoy
TTITLE3=If You Could See Me Now
TTITLE4=In Your Own Sweet Way
TTITLE5=Beautiful Love
TTITLE6=Wyhiwyg
TTITLE7=Kids Are Pretty People
TTITLE8=Lester's Line
EXTD=YEAR: 2003
EXTT0=
EXTT1=
EXTT2=
EXTT3=
EXTT4=
EXTT5=
EXTT6=
EXTT7=
EXTT8=
PLAYORDER=
